<svg width="56" height="67" viewBox="0 0 56 67" fill="none" xmlns="http://www.w3.org/2000/svg">
<g id="donut_small_24px">
<path id="icon/action/donut_small_24px" fill-rule="evenodd" clip-rule="evenodd" d="M28.8604 53.1225C28.8604 54.9092 27.4837 56.2492 26.037 55.8583C15.607 53.0667 7.86035 41.8721 7.86035 28.5C7.86035 15.1279 15.607 3.93333 26.037 1.14167C27.4837 0.750833 28.8604 2.09083 28.8604 3.8775V53.1225ZM33.5971 3.8775V22.8888C33.5971 24.4242 34.6471 25.6804 35.9304 25.6804H51.7737C53.2671 25.6804 54.3871 24.0333 54.0604 22.2746C52.0771 11.7779 45.1937 3.51458 36.4437 1.14167C34.9737 0.750833 33.5971 2.09083 33.5971 3.8775ZM33.5971 53.1225V34.1113C33.5971 32.5758 34.6471 31.3196 35.9537 31.2917H51.7971C53.2671 31.2917 54.4104 32.9667 54.0837 34.6975C52.1004 45.1942 45.2171 53.4854 36.4437 55.8583C34.9737 56.2492 33.5971 54.9092 33.5971 53.1225Z" fill="#CFA888"/>
</g>
</svg>
