<svg width="31" height="30" viewBox="0 0 31 30" fill="none" xmlns="http://www.w3.org/2000/svg">
<g id="delete_24px">
<path id="icon/action/delete_24px" fill-rule="evenodd" clip-rule="evenodd" d="M20.021 5H23.2502C23.9606 5 24.5418 5.5625 24.5418 6.25C24.5418 6.9375 23.9606 7.5 23.2502 7.5H7.75016C7.03975 7.5 6.4585 6.9375 6.4585 6.25C6.4585 5.5625 7.03975 5 7.75016 5H10.9793L11.8964 4.1125C12.1289 3.8875 12.4647 3.75 12.8006 3.75H18.1997C18.5356 3.75 18.8714 3.8875 19.1039 4.1125L20.021 5ZM10.3335 26.25C8.91264 26.25 7.75014 25.125 7.75014 23.75V11.25C7.75014 9.875 8.91264 8.75 10.3335 8.75H20.6668C22.0876 8.75 23.2501 9.875 23.2501 11.25V23.75C23.2501 25.125 22.0876 26.25 20.6668 26.25H10.3335Z" fill="#FF0303" fill-opacity="0.87"/>
</g>
</svg>
