<svg width="112" height="92" viewBox="0 0 112 92" fill="none" xmlns="http://www.w3.org/2000/svg">
<g id="assignment_24px">
<path id="icon/action/assignment_24px" fill-rule="evenodd" clip-rule="evenodd" d="M104.444 21.8H88.6533C87.0667 17.276 82.9111 14 78 14C73.0889 14 68.9333 17.276 67.3467 21.8H51.5556C47.4 21.8 44 25.31 44 29.6V84.2C44 88.49 47.4 92 51.5556 92H104.444C108.6 92 112 88.49 112 84.2V29.6C112 25.31 108.6 21.8 104.444 21.8ZM78 21.7999C80.0778 21.7999 81.7778 23.5549 81.7778 25.6999C81.7778 27.8449 80.0778 29.5999 78 29.5999C75.9222 29.5999 74.2222 27.8449 74.2222 25.6999C74.2222 23.5549 75.9222 21.7999 78 21.7999ZM62.8888 76.4H81.7777C83.8555 76.4 85.5555 74.645 85.5555 72.5C85.5555 70.355 83.8555 68.6 81.7777 68.6H62.8888C60.811 68.6 59.111 70.355 59.111 72.5C59.111 74.645 60.811 76.4 62.8888 76.4ZM93.111 60.8H62.8888C60.811 60.8 59.111 59.045 59.111 56.9C59.111 54.755 60.811 53 62.8888 53H93.111C95.1888 53 96.8888 54.755 96.8888 56.9C96.8888 59.045 95.1888 60.8 93.111 60.8ZM62.8888 45.2H93.111C95.1888 45.2 96.8888 43.445 96.8888 41.3C96.8888 39.155 95.1888 37.4 93.111 37.4H62.8888C60.811 37.4 59.111 39.155 59.111 41.3C59.111 43.445 60.811 45.2 62.8888 45.2Z" fill="#CFA888"/>
</g>
</svg>
