<svg width="62" height="69" viewBox="0 0 62 69" fill="none" xmlns="http://www.w3.org/2000/svg">
<g id="assignment_ind_24px">
<path id="icon/action/assignment_ind_24px" fill-rule="evenodd" clip-rule="evenodd" d="M42.3384 7.10177H55.1006C58.459 7.10177 61.2069 9.98417 61.2069 13.5071V58.3446C61.2069 61.8675 58.459 64.75 55.1006 64.75H12.3563C8.99784 64.75 6.25 61.8675 6.25 58.3446V13.5071C6.25 9.98417 8.99784 7.10177 12.3563 7.10177H25.1185C26.4009 3.38666 29.7593 0.696411 33.7284 0.696411C37.6976 0.696411 41.056 3.38666 42.3384 7.10177ZM36.7815 10.3044C36.7815 8.54291 35.4076 7.1017 33.7283 7.1017C32.0491 7.1017 30.6752 8.54291 30.6752 10.3044C30.6752 12.0659 32.0491 13.5071 33.7283 13.5071C35.4076 13.5071 36.7815 12.0659 36.7815 10.3044ZM33.7284 19.9125C38.7967 19.9125 42.8879 24.2041 42.8879 29.5205C42.8879 34.8369 38.7967 39.1285 33.7284 39.1285C28.6602 39.1285 24.569 34.8369 24.569 29.5205C24.569 24.2041 28.6602 19.9125 33.7284 19.9125ZM15.4095 53.8608V58.3446H52.0474V53.8608C52.0474 47.4555 39.8348 43.9325 33.7284 43.9325C27.6221 43.9325 15.4095 47.4555 15.4095 53.8608Z" fill="#CFA888"/>
</g>
</svg>
