<svg width="82" height="97" viewBox="0 0 82 97" fill="none" xmlns="http://www.w3.org/2000/svg">
<g id="developer_board_24px">
<path id="icon/hardware/developer_board_24px" fill-rule="evenodd" clip-rule="evenodd" d="M10.8002 68.701C8.94406 68.7194 7.4075 66.9346 7.38564 64.7347C7.36378 62.5348 8.86456 60.7198 10.7207 60.7014L14.0956 60.6678L14.0161 52.6682L10.6412 52.7018C8.78507 52.7202 7.24851 50.9354 7.22665 48.7355C7.20479 46.5356 8.70558 44.7206 10.5617 44.7022L13.9366 44.6686L13.8571 36.669L10.4822 36.7026C8.62608 36.721 7.08952 34.9362 7.06766 32.7363C7.0458 30.5364 8.54659 28.7214 10.4027 28.703L13.7776 28.6694L13.6981 20.6698C13.6544 16.27 16.6559 12.64 20.3683 12.6031L67.6159 12.1336C71.3283 12.0967 74.4014 15.6664 74.4451 20.0661L75.0016 76.0634C75.0453 80.4632 72.0437 84.0932 68.3314 84.1301L21.0837 84.5996C17.3714 84.6365 14.2983 81.0668 14.2546 76.667L14.1751 68.6674L10.8002 68.701ZM64.3206 20.1667L23.8226 20.5692C21.9664 20.5876 20.4656 22.4026 20.4875 24.6025L20.9645 72.6002C20.9863 74.8001 22.5229 76.5849 24.3791 76.5664L64.8771 76.164C66.7332 76.1455 68.234 74.3305 68.2121 72.1306L67.7352 24.133C67.7133 21.9331 66.1767 20.1483 64.3206 20.1667ZM59.4968 44.2159L45.9975 44.35C45.0525 44.3594 44.3013 43.4868 44.2902 42.3669L44.171 30.3675C44.1598 29.2476 44.8936 28.3602 45.8385 28.3508L59.3378 28.2167C60.2828 28.2073 61.034 29.0799 61.0451 30.1998L61.1644 42.1992C61.1755 43.3192 60.4418 44.2065 59.4968 44.2159ZM29.3618 68.5165L39.4863 68.4159C40.4313 68.4065 41.165 67.5192 41.1539 66.3993L41.0744 58.3997C41.0632 57.2797 40.312 56.4071 39.3671 56.4165L29.2426 56.5171C28.2976 56.5265 27.5639 57.4139 27.575 58.5338L27.6545 66.5334C27.6657 67.6533 28.4169 68.5259 29.3618 68.5165ZM59.7353 68.2147L46.236 68.3489C45.291 68.3582 44.5398 67.4857 44.5287 66.3657L44.3697 50.3665C44.3586 49.2466 45.0923 48.3592 46.0372 48.3498L59.5366 48.2157C60.4815 48.2063 61.2327 49.0789 61.2439 50.1988L61.4029 66.198C61.414 67.318 60.6803 68.2053 59.7353 68.2147ZM29.2028 52.5173L39.3273 52.4167C40.2723 52.4073 41.006 51.52 40.9949 50.4L40.7961 30.401C40.785 29.2811 40.0338 28.4085 39.0888 28.4179L28.9643 28.5185C28.0194 28.5279 27.2857 29.4152 27.2968 30.5352L27.4955 50.5342C27.5067 51.6541 28.2579 52.5267 29.2028 52.5173Z" fill="#CFA888"/>
</g>
</svg>
