<svg width="57" height="47" viewBox="0 0 57 47" fill="none" xmlns="http://www.w3.org/2000/svg">
<g id="device_hub_24px">
<path id="icon/hardware/device_hub_24px" d="M40.375 31.3357L30.875 23.5023V17.2748C34.0812 16.3152 36.2425 13.5736 35.4588 10.499C34.865 8.18816 32.5375 6.34732 29.7113 5.95566C25.2463 5.34857 21.375 8.16857 21.375 11.7523C21.375 14.2982 23.37 16.4523 26.125 17.2748V23.5023L16.625 31.3357H9.5C8.19375 31.3357 7.125 32.2169 7.125 33.294V39.169C7.125 40.2461 8.19375 41.1273 9.5 41.1273H16.625C17.9312 41.1273 19 40.2461 19 39.169V35.1544L28.5 26.9294L38 35.1544V39.169C38 40.2461 39.0688 41.1273 40.375 41.1273H47.5C48.8063 41.1273 49.875 40.2461 49.875 39.169V33.294C49.875 32.2169 48.8063 31.3357 47.5 31.3357H40.375Z" fill="#CFA888"/>
</g>
</svg>
