<svg width="90" height="62" viewBox="0 0 90 62" fill="none" xmlns="http://www.w3.org/2000/svg">
<g id="local_atm_24px">
<path id="icon/maps/local_atm_24px" fill-rule="evenodd" clip-rule="evenodd" d="M75 10.3333H15C10.8375 10.3333 7.5375 12.6324 7.5375 15.4999L7.5 46.4999C7.5 49.3674 10.8375 51.6666 15 51.6666H75C79.1625 51.6666 82.5 49.3674 82.5 46.4999V15.4999C82.5 12.6324 79.1625 10.3333 75 10.3333ZM74.9999 43.9165C74.9999 45.3374 73.3124 46.4999 71.2499 46.4999H18.7499C16.6874 46.4999 14.9999 45.3374 14.9999 43.9165V18.0832C14.9999 16.6624 16.6874 15.4999 18.7499 15.4999H71.2499C73.3124 15.4999 74.9999 16.6624 74.9999 18.0832V43.9165ZM56.2501 23.2499C56.2501 24.6708 54.5626 25.8333 52.5001 25.8333H41.2501V28.4166H52.5001C54.5626 28.4166 56.2501 29.5791 56.2501 30.9999V38.7499C56.2501 40.1707 54.5626 41.3333 52.5001 41.3333H48.7501C48.7501 42.7541 47.0626 43.9166 45.0001 43.9166C42.9375 43.9166 41.2501 42.7541 41.2501 41.3333H37.5001C35.4376 41.3333 33.7501 40.1707 33.7501 38.7499C33.7501 37.3291 35.4376 36.1666 37.5001 36.1666H48.7501V33.5833H37.5001C35.4376 33.5833 33.7501 32.4208 33.7501 30.9999V23.2499C33.7501 21.8291 35.4376 20.6666 37.5001 20.6666H41.2501V20.6408C41.2501 19.2199 42.9375 18.0574 45.0001 18.0574C47.0626 18.0574 48.7501 19.2199 48.7501 20.6408V20.6666H52.5001C54.5626 20.6666 56.2501 21.8291 56.2501 23.2499Z" fill="#CFA888"/>
</g>
</svg>
