<svg width="88" height="83" viewBox="0 0 88 83" fill="none" xmlns="http://www.w3.org/2000/svg">
<g id="local_mall_24px">
<path id="icon/maps/local_mall_24px" fill-rule="evenodd" clip-rule="evenodd" d="M69.6667 22.4792H62.3333C62.3333 12.9342 54.12 5.1875 44 5.1875C33.88 5.1875 25.6667 12.9342 25.6667 22.4792H18.3333C14.3 22.4792 11 25.5917 11 29.3958V70.8958C11 74.7 14.3 77.8125 18.3333 77.8125H69.6667C73.7 77.8125 77 74.7 77 70.8958V29.3958C77 25.5917 73.7 22.4792 69.6667 22.4792ZM44 12.1042C50.0867 12.1042 55 16.7383 55 22.4792H33C33 16.7383 37.9133 12.1042 44 12.1042ZM26.2533 33.7188C28.2699 41.1888 35.4566 46.6875 43.9999 46.6875C52.5433 46.6875 59.7299 41.1888 61.7466 33.7188C62.3333 31.54 60.5733 29.3958 58.1899 29.3958C56.4666 29.3958 55.0733 30.5717 54.5966 32.1625C53.3133 36.5546 49.0599 39.7708 43.9999 39.7708C38.9399 39.7708 34.6866 36.5546 33.4033 32.1625C32.9266 30.5717 31.5333 29.3958 29.8099 29.3958C27.4266 29.3958 25.6299 31.54 26.2533 33.7188Z" fill="#CFA888"/>
</g>
</svg>
