<svg width="30" height="24" viewBox="0 0 30 24" fill="none" xmlns="http://www.w3.org/2000/svg">
<g id="search_24px">
<path id="icon/action/search_24px" fill-rule="evenodd" clip-rule="evenodd" d="M18.983 14.4716H19.9705L25.2705 18.7316C25.783 19.1416 25.783 19.8116 25.2705 20.2216C24.758 20.6316 23.9205 20.6316 23.408 20.2216L18.0955 15.9716V15.1816L17.758 14.9016C16.008 16.1016 13.6205 16.7216 11.083 16.3816C7.60801 15.9116 4.83301 13.5916 4.40801 10.7916C3.75801 6.56157 8.20801 3.00157 13.4955 3.52157C16.9955 3.86157 19.8955 6.08157 20.483 8.86157C20.908 10.8916 20.133 12.8016 18.633 14.2016L18.983 14.4716ZM6.84554 9.97157C6.84554 12.4616 9.35804 14.4716 12.4705 14.4716C15.583 14.4716 18.0955 12.4616 18.0955 9.97157C18.0955 7.48157 15.583 5.47157 12.4705 5.47157C9.35804 5.47157 6.84554 7.48157 6.84554 9.97157Z" fill="black" fill-opacity="0.54"/>
</g>
</svg>
