<svg width="83" height="98" viewBox="0 0 83 98" fill="none" xmlns="http://www.w3.org/2000/svg">
<g id="developer_board_24px">
<path id="icon/hardware/developer_board_24px" fill-rule="evenodd" clip-rule="evenodd" d="M11.3254 69.3008C9.46921 69.3193 7.93265 67.5345 7.91079 65.3346C7.88893 63.1347 9.38971 61.3197 11.2459 61.3012L14.6207 61.2677L14.5412 53.2681L11.1664 53.3016C9.31022 53.3201 7.77366 51.5352 7.7518 49.3354C7.72994 47.1355 9.23072 45.3205 11.0869 45.302L14.4617 45.2685L14.3822 37.2689L11.0074 37.3024C9.15123 37.3209 7.61467 35.536 7.59281 33.3361C7.57095 31.1363 9.07173 29.3213 10.9279 29.3028L14.3027 29.2693L14.2232 21.2697C14.1795 16.8699 17.1811 13.2399 20.8934 13.203L68.1411 12.7335C71.8534 12.6966 74.9265 16.2662 74.9702 20.666L75.5267 76.6632C75.5704 81.063 72.5689 84.693 68.8565 84.7299L21.6089 85.1994C17.8965 85.2363 14.8234 81.6667 14.7797 77.2669L14.7002 69.2673L11.3254 69.3008ZM64.8457 20.7666L24.3477 21.169C22.4916 21.1875 20.9908 23.0025 21.0126 25.2024L21.4896 73.2C21.5115 75.3999 23.048 77.1847 24.9042 77.1663L65.4022 76.7638C67.2584 76.7454 68.7591 74.9304 68.7373 72.7305L68.2603 24.7329C68.2385 22.533 66.7019 20.7482 64.8457 20.7666ZM60.022 44.8157L46.5226 44.9499C45.5777 44.9593 44.8265 44.0867 44.8154 42.9668L44.6961 30.9674C44.685 29.8474 45.4187 28.9601 46.3637 28.9507L59.863 28.8165C60.8079 28.8071 61.5592 29.6797 61.5703 30.7997L61.6895 42.7991C61.7007 43.919 60.9669 44.8063 60.022 44.8157ZM29.887 69.1164L40.0115 69.0158C40.9564 69.0064 41.6901 68.1191 41.679 66.9991L41.5995 58.9995C41.5884 57.8796 40.8372 57.007 39.8922 57.0164L29.7677 57.117C28.8228 57.1264 28.0891 58.0137 28.1002 59.1337L28.1797 67.1333C28.1908 68.2532 28.942 69.1258 29.887 69.1164ZM60.2605 68.8146L46.7611 68.9487C45.8162 68.9581 45.065 68.0855 45.0538 66.9656L44.8948 50.9664C44.8837 49.8464 45.6174 48.9591 46.5624 48.9497L60.0617 48.8155C61.0067 48.8062 61.7579 49.6787 61.769 50.7987L61.928 66.7979C61.9391 67.9178 61.2054 68.8052 60.2605 68.8146ZM29.728 53.1172L39.8525 53.0165C40.7974 53.0072 41.5312 52.1198 41.52 50.9999L41.3213 31.0009C41.3102 29.8809 40.5589 29.0083 39.614 29.0177L29.4895 29.1183C28.5445 29.1277 27.8108 30.0151 27.822 31.135L28.0207 51.134C28.0318 52.254 28.783 53.1265 29.728 53.1172Z" fill="#CFA888"/>
</g>
</svg>
