<svg width="24" height="23" viewBox="0 0 24 23" fill="none" xmlns="http://www.w3.org/2000/svg">
<g id="local_mall_24px">
<path id="icon/maps/local_mall_24px" fill-rule="evenodd" clip-rule="evenodd" d="M19 6.22917H17C17 3.58417 14.76 1.4375 12 1.4375C9.24 1.4375 7 3.58417 7 6.22917H5C3.9 6.22917 3 7.09167 3 8.14583V19.6458C3 20.7 3.9 21.5625 5 21.5625H19C20.1 21.5625 21 20.7 21 19.6458V8.14583C21 7.09167 20.1 6.22917 19 6.22917ZM12 3.35418C13.66 3.35418 15 4.63835 15 6.22918H9C9 4.63835 10.34 3.35418 12 3.35418ZM7.15995 9.34373C7.70995 11.4137 9.66995 12.9375 12 12.9375C14.33 12.9375 16.29 11.4137 16.84 9.34373C17 8.73998 16.52 8.14581 15.87 8.14581C15.4 8.14581 15.02 8.47165 14.89 8.91248C14.54 10.1296 13.38 11.0208 12 11.0208C10.62 11.0208 9.45995 10.1296 9.10995 8.91248C8.97995 8.47165 8.59995 8.14581 8.12995 8.14581C7.47995 8.14581 6.98995 8.73998 7.15995 9.34373Z" fill="#CFA888"/>
</g>
</svg>
